<?xml version="1.0" encoding="UTF-8"?>
<svg xmlns="http://www.w3.org/2000/svg" xmlns:xlink="http://www.w3.org/1999/xlink" version="1.1" id="Layer_1" x="0px" y="0px" viewBox="0 0 2002.84 227.96" style="enable-background:new 0 0 2002.84 227.96;" xml:space="preserve">
<style type="text/css">
	.st0{fill:#179A6B;}
</style>
<g>
	<path class="st0" d="M74.77,224.31H0L50.24,14.9h114.64l50.24,209.41h-74.77l-5.11-24.53c-1.17-5.74-1.17-11,0-15.77H79.88   c1.17,4.77,1.17,10.03,0,15.77L74.77,224.31z M86.16,139.02v1.61h42.79v-1.61c-3.41-3.41-7.11-14.07-11.1-31.98   c-2.43-11.78-4.53-24.68-6.28-38.7c-1.75-14.02-2.63-23.66-2.63-28.91h-2.77c0,5.26-0.88,14.9-2.63,28.91   c-1.75,14.02-3.85,26.92-6.28,38.7C93.26,124.96,89.57,135.62,86.16,139.02z"></path>
	<path class="st0" d="M348.58,227.96c-6.82,0-13.14-1.05-18.98-3.14c-5.84-2.09-11.51-5.5-17.01-10.22   c-5.5-4.72-10.32-11.49-14.46-20.3c-4.14-8.81-7.23-19.35-9.27-31.62h-2.48l6.28,61.63h-70.24V0h67.61v68.78l-6.57,43.37h3.5   c0.49-8.76,1.61-16.72,3.36-23.88s3.87-13.14,6.35-17.96c2.48-4.82,5.43-9.03,8.83-12.63c3.41-3.6,6.81-6.43,10.22-8.47   c3.41-2.04,7.16-3.67,11.24-4.89c4.09-1.22,7.79-2.02,11.1-2.41c3.31-0.39,6.81-0.58,10.51-0.58c14.6,0,27.38,4.29,38.33,12.85   c10.95,8.57,19.18,19.86,24.68,33.88c5.5,14.02,8.25,29.65,8.25,46.88s-2.73,32.81-8.18,46.73c-5.45,13.92-13.65,25.12-24.61,33.59   C376.11,223.72,363.28,227.96,348.58,227.96z M318.35,163.26c10.81,0,19.59-2.31,26.36-6.94c6.77-4.62,10.15-11.36,10.15-20.23   c0-9.05-3.36-15.87-10.08-20.44c-6.72-4.58-15.53-6.86-26.43-6.86c-10.9,0-19.76,2.29-26.58,6.86   c-6.82,4.58-10.22,11.39-10.22,20.44c0,8.86,3.41,15.6,10.22,20.23C298.59,160.95,307.45,163.26,318.35,163.26z"></path>
	<path class="st0" d="M500.46,227.96c-27.16,0-51.16-5.21-71.99-15.63V139.9h4.53c18.98,18.98,42.2,28.48,69.66,28.48   c5.45,0,9.76-0.58,12.92-1.75c3.16-1.17,4.75-2.77,4.75-4.82c0-1.36-1.36-2.5-4.09-3.43c-2.73-0.92-6.3-1.68-10.73-2.26   c-4.43-0.58-9.47-1.44-15.11-2.56c-5.65-1.12-11.44-2.36-17.38-3.72c-5.94-1.36-11.73-3.45-17.38-6.28   c-5.65-2.82-10.69-6.11-15.11-9.86c-4.43-3.75-8.01-8.64-10.73-14.68c-2.73-6.04-4.09-12.9-4.09-20.59   c0-9.35,2.21-17.74,6.64-25.19c4.43-7.45,10.39-13.46,17.89-18.04c7.5-4.57,15.94-8.03,25.34-10.37c9.39-2.34,19.4-3.5,30.01-3.5   c25.41,0,49.36,5.99,71.85,17.96v63.67h-3.94c-8.76-7.69-19.57-13.85-32.42-18.47c-12.85-4.62-25.85-6.94-38.99-6.94   c-12.56,0-18.84,2.39-18.84,7.16c0,1.85,1.92,3.38,5.77,4.6c3.84,1.22,8.83,2.26,14.97,3.14c6.13,0.88,12.92,1.9,20.37,3.07   c7.45,1.17,14.9,2.97,22.34,5.4c7.45,2.44,14.24,5.4,20.37,8.91c6.13,3.5,11.12,8.4,14.97,14.68c3.84,6.28,5.77,13.56,5.77,21.83   c0,14.02-3.85,25.73-11.54,35.12c-7.69,9.4-17.91,16.16-30.67,20.3C532.82,225.89,517.78,227.96,500.46,227.96z"></path>
	<path class="st0" d="M693.22,227.96c-14.99,0-28.77-2.43-41.33-7.3c-12.56-4.87-23.07-11.51-31.54-19.93   c-8.47-8.42-15.04-18.28-19.71-29.57c-4.67-11.29-7.01-23.36-7.01-36.22c0-10.22,1.48-20.03,4.45-29.43   c2.97-9.39,7.32-17.98,13.07-25.77c5.74-7.79,12.61-14.55,20.59-20.3c7.98-5.74,17.23-10.2,27.75-13.36   c10.51-3.16,21.76-4.75,33.73-4.75c14.7,0,28.31,2.48,40.82,7.45c12.51,4.97,23,11.66,31.47,20.08   c8.47,8.42,15.09,18.35,19.86,29.79c4.77,11.44,7.16,23.54,7.16,36.29c0,12.85-2.31,24.92-6.94,36.22   c-4.62,11.29-11.12,21.15-19.5,29.57c-8.37,8.42-18.84,15.07-31.4,19.93C722.13,225.52,708.31,227.96,693.22,227.96z    M666.93,155.23c6.72,4.58,15.48,6.86,26.29,6.86s19.64-2.29,26.5-6.86c6.86-4.58,10.3-11.34,10.3-20.3   c0-8.96-3.43-15.75-10.3-20.37c-6.86-4.62-15.7-6.94-26.5-6.94c-10.61,0-19.33,2.31-26.14,6.94c-6.82,4.62-10.22,11.42-10.22,20.37   C656.86,143.89,660.21,150.66,666.93,155.23z"></path>
	<path class="st0" d="M871.96,224.31h-70.53V0h70.53V224.31z"></path>
	<path class="st0" d="M979,227.96c-20.15,0-37.73-4.26-52.72-12.78c-14.99-8.52-26.31-19.93-33.95-34.24   c-7.64-14.31-11.46-30.47-11.46-48.48c0-17.33,3.94-32.93,11.83-46.8s18.91-24.73,33.08-32.57c14.17-7.84,30.2-11.76,48.12-11.76   c12.17,0,23.49,1.95,33.95,5.84c10.46,3.9,19.13,8.98,25.99,15.26c6.86,6.28,12.22,13.27,16.06,20.96   c3.84,7.69,5.77,15.48,5.77,23.37c0,7.5-1,14.09-2.99,19.79c-2,5.7-4.65,10.27-7.96,13.73c-3.31,3.46-7.38,6.28-12.19,8.47   c-4.82,2.19-9.74,3.68-14.75,4.45c-5.02,0.78-10.54,1.17-16.58,1.17c-6.91,0-14.22-1.17-21.91-3.5   c-7.69-2.34-14.65-5.45-20.88-9.35c4.77,8.08,11.54,14.29,20.3,18.62c8.76,4.33,18.93,6.5,30.52,6.5c25.8,0,41.86-10.46,48.19-31.4   h3.5c0,7.59-0.76,15.31-2.26,23.15c-1.51,7.84-4.26,16.02-8.25,24.53c-3.99,8.52-8.96,16.04-14.9,22.56   c-5.94,6.52-13.8,11.9-23.58,16.14C1002.15,225.84,991.17,227.96,979,227.96z M954.18,133.33c9.35,0.2,17.43-2.53,24.24-8.18   c6.81-5.65,10.22-13.19,10.22-22.64c0-2.34-0.42-4.72-1.24-7.16c-0.83-2.43-2.61-4.77-5.33-7.01c-2.73-2.24-6.13-3.36-10.22-3.36   c-5.36,0-10.22,2.58-14.6,7.74c-4.38,5.16-6.57,11.83-6.57,20.01C950.67,118.48,951.84,125.35,954.18,133.33z"></path>
	<path class="st0" d="M1139.79,224.31h-69.95V44.83h70.83l-12.27,102.08h3.07c4.18-38.45,10.83-65.66,19.93-81.63   c9.1-15.97,23.1-23.95,41.98-23.95c7.89,0,14.82,1.36,20.81,4.09c5.99,2.73,10.73,6.23,14.24,10.51c3.5,4.29,6.35,9.62,8.54,15.99   c2.19,6.38,3.65,12.68,4.38,18.91c0.73,6.23,1.1,13.14,1.1,20.74c0,8.76-0.63,20.54-1.9,35.34h2.77   c2.72-35.63,9.15-62.14,19.28-79.52c10.12-17.38,24.83-26.07,44.1-26.07c17.82,0,30.98,6.35,39.5,19.06   c8.52,12.7,12.78,33.47,12.78,62.28v101.64h-69.95v-57.39c0-0.88,0-2.14,0-3.8c0-3.11,0-5.48,0-7.08s-0.02-3.89-0.07-6.86   c-0.05-2.97-0.17-5.28-0.36-6.94c-0.2-1.65-0.44-3.75-0.73-6.28c-0.29-2.53-0.68-4.53-1.17-5.99c-0.49-1.46-1.05-3.14-1.68-5.04   c-0.63-1.9-1.44-3.38-2.41-4.45c-0.97-1.07-2.04-2.12-3.21-3.14c-1.17-1.02-2.53-1.75-4.09-2.19c-1.56-0.44-3.26-0.66-5.11-0.66   c-7.98,0-13.41,5.91-16.28,17.74c-2.87,11.83-4.31,30.25-4.31,55.27v36.8h-69.95v-69.66c0-3.89-0.07-7.28-0.22-10.15   c-0.15-2.87-0.42-5.99-0.8-9.35c-0.39-3.36-1-6.16-1.83-8.4c-0.83-2.24-1.88-4.36-3.14-6.35c-1.27-1.99-2.92-3.48-4.96-4.45   c-2.04-0.97-4.38-1.46-7.01-1.46c-2.63,0-4.99,0.44-7.08,1.31c-2.09,0.88-3.9,2.39-5.4,4.53c-1.51,2.14-2.8,4.33-3.87,6.57   c-1.07,2.24-1.95,5.48-2.63,9.71c-0.68,4.23-1.22,8.06-1.61,11.46c-0.39,3.41-0.68,8.15-0.88,14.24c-0.2,6.09-0.32,11.32-0.37,15.7   c-0.05,4.38-0.07,10.42-0.07,18.11V224.31z"></path>
	<path class="st0" d="M1603.3,224.31h-70.97v-40.01h-101.64v-74.48c21.91-9.44,32.86-24.34,32.86-44.69   c0-9.44-1.97-18.74-5.91-27.89c-3.94-9.15-8.06-16.6-12.34-22.34h76.96c6.33,10.71,9.49,23.8,9.49,39.28   c0,6.91-0.75,13.56-2.26,19.93c-1.51,6.38-4.11,12.68-7.81,18.91c-3.7,6.23-8.32,11.63-13.87,16.21   c-5.55,4.58-12.73,8.3-21.54,11.17c-8.81,2.87-18.76,4.41-29.86,4.6v3.36h86.45V14.9h60.46v113.47h17.52v55.93h-17.52V224.31z"></path>
	<path class="st0" d="M1792.55,224.31h-162.68v-74.48c37.29-11.1,63.91-20.74,79.88-28.91c15.97-8.18,23.95-16.5,23.95-24.97   c0-4.97-2.02-8.64-6.06-11.03c-4.04-2.38-9.42-3.58-16.14-3.58c-11.49,0-24.12,2.65-37.9,7.96c-13.78,5.31-25.39,12.34-34.83,21.1   h-4.09V29.64c21.61-12.17,46.44-18.25,74.48-18.25c16.06,0,30.59,2.7,43.59,8.1c13,5.4,23.44,13.56,31.32,24.46   c7.89,10.9,11.83,23.76,11.83,38.55c0,8.67-1.61,16.6-4.82,23.8c-3.21,7.21-7.89,13.53-14.02,18.98   c-6.13,5.45-13.31,10.27-21.54,14.46c-8.23,4.19-17.69,7.77-28.4,10.73c-10.71,2.97-21.88,5.4-33.51,7.3   c-11.63,1.9-24.31,3.43-38.04,4.6v4.53l136.98-17.67V224.31z"></path>
	<path class="st0" d="M1945.16,219.49c-12.75,5.64-26.92,8.47-42.5,8.47c-15.58,0-29.79-2.83-42.64-8.47   c-12.85-5.65-23.49-13.36-31.91-23.15c-8.42-9.78-14.92-21.22-19.5-34.32c-4.58-13.09-6.86-27.14-6.86-42.13   c0-14.9,2.31-28.91,6.94-42.06c4.62-13.14,11.17-24.65,19.64-34.54c8.47-9.88,19.1-17.67,31.91-23.37   c12.8-5.7,26.94-8.54,42.42-8.54c12.36,0,23.92,1.85,34.68,5.55c10.76,3.7,20.1,8.86,28.04,15.48   c7.93,6.62,14.72,14.46,20.37,23.51c5.65,9.05,9.91,19.01,12.78,29.86c2.87,10.86,4.31,22.22,4.31,34.1   c0,14.99-2.26,29.04-6.79,42.13c-4.53,13.1-10.95,24.53-19.28,34.32C1968.45,206.13,1957.91,213.84,1945.16,219.49z    M1863.09,168.96l2.19,1.17l53.74-89.96c-5.06-2.43-10.51-3.65-16.36-3.65c-11.29,0-20.4,3.53-27.31,10.59   c-6.91,7.06-10.37,16.62-10.37,28.7c0,2.63,0.15,5.18,0.44,7.67c0.29,2.48,0.8,5.43,1.53,8.83c0.73,3.41,1.14,5.55,1.24,6.43   C1869.95,148.86,1868.25,158.93,1863.09,168.96z M1902.66,163.56c11,0,20.08-3.77,27.24-11.32c7.16-7.54,10.73-16.91,10.73-28.11   c0-2.24-0.2-4.55-0.58-6.94c-0.39-2.38-0.8-4.31-1.24-5.77c-0.44-1.46-1.07-3.41-1.9-5.84c-0.83-2.43-1.39-4.14-1.68-5.11   c-0.97-3.21-1.63-6.08-1.97-8.62c-0.34-2.53-0.12-5.6,0.66-9.2c0.78-3.6,2.29-7.35,4.53-11.24l-2.63-1.75l-51.99,89.52   C1889.28,162.1,1895.56,163.56,1902.66,163.56z"></path>
</g>
</svg>
